<?xml version="1.0" standalone="no"?>
<!DOCTYPE svg PUBLIC "-//W3C//DTD SVG 20010904//EN"
 "http://www.w3.org/TR/2001/REC-SVG-20010904/DTD/svg10.dtd">
<svg version="1.0" xmlns="http://www.w3.org/2000/svg"
 width="280.000000pt" height="280.000000pt" viewBox="0 0 280.000000 280.000000"
 preserveAspectRatio="xMidYMid meet">
<metadata>
Created by potrace 1.11, written by Peter Selinger 2001-2013
</metadata>
<g transform="translate(0.000000,280.000000) scale(0.100000,-0.100000)"
fill="#000000" stroke="none">
<path d="M1655 2758 c-43 -22 -164 -195 -232 -333 -61 -124 -115 -276 -127
-360 -4 -23 -9 -52 -12 -65 -10 -43 -14 -323 -4 -370 4 -25 7 -46 6 -47 -1 -2
-47 3 -102 11 -402 56 -740 -63 -1082 -379 -74 -67 -88 -114 -53 -171 18 -29
60 -52 89 -48 6 1 18 2 25 3 6 1 43 31 82 66 38 36 74 65 80 65 5 0 190 -180
409 -401 l400 -400 -51 -52 c-107 -112 -119 -153 -59 -213 36 -36 70 -43 109
-23 24 13 123 114 165 169 15 19 29 37 32 40 3 3 22 28 41 55 108 150 183 333
211 512 17 103 16 292 -1 397 -7 38 -10 71 -7 73 2 2 28 0 57 -6 55 -10 295
-7 359 4 75 13 235 57 298 82 202 80 446 238 472 307 5 15 5 38 -1 61 -8 29
-19 40 -51 55 -51 23 -76 16 -158 -44 -34 -25 -65 -46 -69 -46 -9 0 -781 775
-781 784 0 4 20 34 44 66 50 66 63 89 61 110 -1 8 -3 23 -3 33 -1 11 -16 32
-33 48 -33 31 -76 37 -114 17z m286 -817 c267 -267 346 -351 336 -359 -14 -12
-167 -65 -173 -60 -54 45 -583 585 -581 593 2 5 16 47 32 93 16 45 30 82 33
82 2 0 161 -157 353 -349z m-107 -463 c-11 -18 -293 17 -316 40 -20 20 -56
301 -40 316 7 8 361 -347 356 -356z m-659 -94 c28 -4 52 -9 55 -9 3 -1 26 -5
51 -9 25 -4 51 -11 58 -15 19 -12 52 -196 56 -318 2 -62 3 -113 2 -113 -1 0
-110 107 -241 239 l-238 238 103 -2 c57 -1 127 -6 154 -11z m-168 -374 l331
-330 -11 -38 c-11 -38 -62 -137 -70 -137 -2 0 -174 170 -382 378 l-377 377 84
40 c45 22 85 40 89 40 3 0 154 -149 336 -330z"/>
</g>
</svg>
